<svg width="163" height="49" viewBox="0 0 163 49" fill="none" xmlns="http://www.w3.org/2000/svg">
<path d="M11.2927 9.31169C11.2927 9.31169 10.0752 10.2152 8.83679 9.31169C8.83679 9.31169 8.30805 8.88213 8.24544 8.72661C8.24544 8.72661 8.00194 8.4748 7.89062 8.78586C7.89062 8.78586 7.97411 9.29688 8.72548 10.0449C8.72548 10.0449 10.0752 11.7483 12.3501 10.2967C12.3641 10.2967 12.371 10.2819 12.3849 10.2745L15.7661 8.14153C15.7661 8.14153 18.9455 6.19372 20.5456 9.67459C20.5456 9.67459 21.7492 12.0371 20.5456 14.7996C20.5456 14.7996 19.6273 16.7178 17.9298 18.2805L16.6079 19.584C16.6079 19.584 15.9539 20.0802 16.6566 20.0654C16.6566 20.0654 18.0132 19.147 18.6115 18.6138C18.6115 18.6138 21.1022 16.2586 21.7353 14.4219C21.7353 14.4219 22.918 11.5557 21.944 9.07469C21.944 9.07469 20.81 5.43089 16.9558 6.33443C16.9558 6.33443 14.6599 7.36388 13.832 7.84528L11.2927 9.31169Z" fill="url(#paint0_linear_7712_5377)"/>
<path d="M10.5697 6.89723C10.5697 6.89723 9.8601 6.91205 9.59573 6.63061C9.59573 6.63061 7.98168 5.86038 7.39728 5.82335C7.39728 5.82335 4.9762 5.20864 2.72905 6.51212C2.72905 6.51212 -0.74951 7.86743 0.147959 13.1332C0.147959 13.1332 0.168831 15.9697 3.96742 19.258C3.96742 19.258 6.18674 20.9244 7.32771 21.7317C7.32771 21.7317 11.4672 24.4275 14.6675 28.6193C14.6675 28.6193 17.7356 32.4409 17.2764 35.8773C17.2764 35.8773 16.6363 41.9281 8.88611 43.8167L8.22518 43.8685C8.22518 43.8685 8.06517 43.8907 8.05125 44.0759C8.05125 44.0759 8.03038 44.3203 8.38519 44.2536C8.38519 44.2536 10.9593 44.0907 11.7107 43.75C11.7107 43.75 13.7352 43.1279 14.8136 42.1429C14.8136 42.1429 18.0904 39.5952 18.2921 35.07C18.2921 35.07 18.48 30.582 15.391 27.4047C15.391 27.4047 11.5298 22.9907 7.72427 20.3986C7.72427 20.3986 3.26475 17.2213 2.09595 13.9997C2.09595 13.9997 0.210575 8.50436 4.19005 7.40085C4.19005 7.40085 5.35884 6.94167 6.4372 7.01573C6.4372 7.01573 7.94689 7.2157 8.56608 7.49713C8.56608 7.49713 10.9872 7.8304 11.8777 7.4601C11.8777 7.4601 13.29 7.24532 13.0673 6.75652C13.0673 6.75652 12.9978 6.59358 12.7473 6.72689C12.7473 6.72689 11.0706 7.06757 10.5489 6.90464L10.5697 6.89723Z" fill="url(#paint1_linear_7712_5377)"/>
<path d="M8.35806 25.8051C8.35806 25.8051 7.98237 27.1162 11.1548 26.9977C11.1548 26.9977 14.1046 26.7532 12.1775 27.2717C12.1775 27.2717 8.71983 28.1754 7.39797 26.7088C7.39797 26.7088 6.85532 26.0347 7.69017 25.3385C7.69017 25.3385 8.74765 24.4496 8.35806 25.7977V25.8051Z" fill="url(#paint2_linear_7712_5377)"/>
<path d="M8.35806 29.2786C8.35806 29.2786 7.98237 30.5896 11.1548 30.4711C11.1548 30.4711 14.1046 30.2193 12.1775 30.7452C12.1775 30.7452 8.71983 31.6489 7.39797 30.1822C7.39797 30.1822 6.85532 29.5082 7.69017 28.8119C7.69017 28.8119 8.74765 27.923 8.35806 29.2712V29.2786Z" fill="url(#paint3_linear_7712_5377)"/>
<path d="M8.35806 32.8779C8.35806 32.8779 7.98237 34.189 11.1548 34.0705C11.1548 34.0705 14.1046 33.8261 12.1775 34.3446C12.1775 34.3446 8.71983 35.2482 7.39797 33.7816C7.39797 33.7816 6.85532 33.1076 7.69017 32.4113C7.69017 32.4113 8.74765 31.5224 8.35806 32.8705V32.8779Z" fill="url(#paint4_linear_7712_5377)"/>
<path d="M8.35806 36.2255C8.35806 36.2255 7.98237 37.5366 11.1548 37.4181C11.1548 37.4181 14.1046 37.1736 12.1775 37.6922C12.1775 37.6922 8.71983 38.5958 7.39797 37.1292C7.39797 37.1292 6.85532 36.4551 7.69017 35.7589C7.69017 35.7589 8.74765 34.87 8.35806 36.2181V36.2255Z" fill="url(#paint5_linear_7712_5377)"/>
<path d="M8.21769 39.8027C8.21769 39.8027 7.8281 41.1582 11.0979 41.0323C11.0979 41.0323 14.1382 40.773 12.1485 41.3138C12.1485 41.3138 8.58642 42.2397 7.22283 40.736C7.22283 40.736 6.66626 40.0471 7.52198 39.3212C7.52198 39.3212 8.61425 38.4101 8.21074 39.7953L8.21769 39.8027Z" fill="url(#paint6_linear_7712_5377)"/>
<path d="M9.1582 3.09051C9.1582 3.09051 13.7777 -0.671794 23.2325 0.105847C23.2325 0.105847 32.4437 0.453935 39.1017 9.83006C39.1017 9.83006 42.5941 14.3626 43.4012 20.0653C43.4012 20.0653 45.7944 31.0189 39.1017 39.2027C39.1017 39.2027 44.0134 30.9967 41.9402 22.0057C41.9402 22.0057 40.4374 10.0819 30.0922 3.86074C30.0922 3.86074 21.5419 -2.83438 9.1582 3.0831V3.09051Z" fill="url(#paint7_linear_7712_5377)"/>
<path d="M23.2324 5.60119C23.2324 5.60119 28.3111 5.39382 34.7047 11.0299C34.7047 11.0299 41.1261 16.2215 41.4392 26.5012C41.4392 26.5012 41.7871 31.6188 39.6651 36.1291C39.6651 36.1291 36.1866 45.2461 27.518 47.4975C27.518 47.4975 34.9204 44.2685 37.6963 36.7365C37.6963 36.7365 42.2741 27.4048 37.8285 17.4065C37.8285 17.4065 34.8926 8.03039 23.2394 5.6086L23.2324 5.60119Z" fill="url(#paint8_linear_7712_5377)"/>
<path d="M25.1797 47.4901C33.5213 42.728 35.9076 35.4478 36.5059 30.2191C38.0295 16.8658 28.9574 12.0741 28.9574 12.0741C28.9574 12.0741 39.6088 16.9992 37.7234 32.1298C37.7234 32.1298 36.2624 43.5649 25.1797 47.4901Z" fill="url(#paint9_linear_7712_5377)"/>
<path d="M33.0967 21.665C33.0967 21.665 37.4797 34.5591 28.4702 42.5354C28.4702 42.5354 20.5182 50.2452 9.94336 45.8386C9.94336 45.8386 18.6328 51.7857 28.1641 44.2537C28.1641 44.2537 39.1076 36.9586 33.0967 21.665Z" fill="url(#paint10_linear_7712_5377)"/>
<path d="M56.3409 7.31219H58.0036V16.7624H56.3409L52.7858 10.8375V16.7624H51.123V7.31219H52.6814L56.3409 13.4V7.31219Z" fill="url(#paint11_linear_7712_5377)"/>
<path d="M64.4733 7.31219H66.136V16.7624H64.4733V13.0445H61.5026V16.7624H59.8398V7.31219H61.5026V11.2596H64.4733V7.31219Z" fill="url(#paint12_linear_7712_5377)"/>
<path d="M73.2892 16.7624L72.5935 14.7183H69.4698L68.7741 16.7624H67L70.2211 7.31219H71.8352L75.0563 16.7624H73.2823H73.2892ZM71.0351 10.1339L70.0959 12.8816H71.9604L71.0351 10.1339Z" fill="url(#paint13_linear_7712_5377)"/>
<path d="M78.7422 7.31221H80.4049V11.193L83.2226 7.31221H85.2819L82.3112 11.4893C82.5686 11.941 83.0417 12.7779 83.7304 14.0073C84.4192 15.2367 84.934 16.1551 85.2749 16.7624H83.3339L81.1494 13.0297L80.4049 14.0814V16.755H78.7422V7.30481V7.31221Z" fill="url(#paint14_linear_7712_5377)"/>
<path d="M90.9518 7.31219H92.6146V16.7624H90.9518V13.0445H87.9811V16.7624H86.3184V7.31219H87.9811V11.2596H90.9518V7.31219Z" fill="url(#paint15_linear_7712_5377)"/>
<path d="M100.727 15.4587C99.9757 16.3844 99.0434 16.851 97.9442 16.851C96.845 16.851 95.9127 16.3844 95.1614 15.4513C94.41 14.5181 94.0273 13.3553 94.0273 11.9704C94.0273 10.5855 94.403 9.4227 95.1614 8.48954C95.9127 7.55637 96.845 7.08978 97.9442 7.08978C99.0434 7.08978 99.9757 7.55637 100.727 8.48954C101.478 9.4227 101.861 10.5855 101.861 11.9704C101.861 13.3553 101.485 14.5181 100.727 15.4587ZM100.164 11.9852C100.164 11.1409 99.9479 10.4151 99.5235 9.82263C99.0991 9.23015 98.5703 8.9265 97.9512 8.9265C97.332 8.9265 96.8032 9.22274 96.3789 9.82263C95.9545 10.4151 95.7388 11.1335 95.7388 11.9778C95.7388 12.8221 95.9545 13.5405 96.3789 14.1256C96.8032 14.7181 97.332 15.0143 97.9512 15.0143C98.5703 15.0143 99.0991 14.7181 99.5235 14.1256C99.9479 13.5331 100.164 12.8221 100.164 11.9852Z" fill="url(#paint16_linear_7712_5377)"/>
<path d="M108.36 16.7624L107.664 14.7183H104.54L103.844 16.7624H102.07L105.291 7.31219H106.906L110.127 16.7624H108.353H108.36ZM106.105 10.1339L105.166 12.8816H107.031L106.105 10.1339Z" fill="url(#paint17_linear_7712_5377)"/>
<path d="M113.814 7.31219H115.477V16.7624H113.814V7.31219Z" fill="url(#paint18_linear_7712_5377)"/>
<path d="M123.999 10.8079L121.982 15.9699H120.987L118.983 10.8079V16.755H117.32V7.30481H119.574L121.495 12.4965L123.429 7.30481H125.669V16.755H124.006V10.8079H123.999Z" fill="url(#paint19_linear_7712_5377)"/>
<path d="M130.156 14.1258H129.161V16.7624H127.498V7.31219H130.135C131.283 7.31219 132.118 7.59363 132.639 8.15649C133.161 8.71935 133.426 9.58587 133.426 10.756C133.426 11.9262 133.154 12.7779 132.618 13.3185C132.083 13.8592 131.262 14.1332 130.156 14.1332V14.1258ZM130.114 9.11929H129.161V12.2817H130.281C130.837 12.2817 131.213 12.141 131.415 11.8595C131.617 11.5781 131.714 11.1634 131.714 10.6227C131.714 10.0821 131.582 9.69696 131.324 9.46737C131.067 9.23778 130.664 9.12669 130.114 9.12669V9.11929Z" fill="url(#paint20_linear_7712_5377)"/>
<path d="M134.727 16.7624V7.31219H136.389V14.8812H139.569V16.7624H134.727Z" fill="url(#paint21_linear_7712_5377)"/>
<path d="M146.102 16.7624L145.406 14.7183H142.282L141.587 16.7624H139.812L143.034 7.31219H144.648L147.869 16.7624H146.095H146.102ZM143.848 10.1339L142.908 12.8816H144.773L143.848 10.1339Z" fill="url(#paint22_linear_7712_5377)"/>
<path d="M153.956 7.31219H155.619V16.7624H153.956L150.401 10.8375V16.7624H148.738V7.31219H150.297L153.956 13.4V7.31219Z" fill="url(#paint23_linear_7712_5377)"/>
<path d="M160.614 9.14891V16.7624H158.951V9.14891H156.836V7.31219H162.729V9.14891H160.614Z" fill="url(#paint24_linear_7712_5377)"/>
<path d="M66.0117 24.4497H69.6086V42.2836H66.0117V24.4497Z" fill="url(#paint25_linear_7712_5377)"/>
<path d="M73.1289 36.3148V32.9223H81.3314V36.3148H73.1289Z" fill="url(#paint26_linear_7712_5377)"/>
<path d="M90.3625 42.2836H84.8594V24.4497H90.5503C93.4236 24.4497 95.629 25.2273 97.1596 26.7826C98.6971 28.3379 99.4624 30.5005 99.4624 33.2778C99.4624 36.0551 98.711 38.2473 97.2152 39.8618C95.7194 41.4763 93.4305 42.2836 90.3625 42.2836ZM90.4529 27.9158H88.4492V38.7583H90.7312C92.3731 38.7583 93.6393 38.2991 94.5228 37.3808C95.4064 36.4624 95.8447 35.1293 95.8447 33.3741C95.8447 31.6188 95.4064 30.2709 94.5228 29.3303C93.6393 28.3823 92.2826 27.9158 90.4529 27.9158Z" fill="url(#paint27_linear_7712_5377)"/>
<path d="M114.183 24.4497V27.9972H106.168V31.6707H113.376V35.0627H106.168V38.7657H114.44V42.2836H102.578V24.4497H114.19H114.183Z" fill="url(#paint28_linear_7712_5377)"/>
<path d="M128.903 24.4497H132.5V42.2836H128.903L121.23 31.1078V42.2836H117.633V24.4497H120.993L128.896 35.9292V24.4497H128.903Z" fill="url(#paint29_linear_7712_5377)"/>
<path d="M143.278 27.9232V42.291H139.681V27.9232H135.117V24.4497H147.835V27.9232H143.271H143.278Z" fill="url(#paint30_linear_7712_5377)"/>
<defs>
<linearGradient id="paint0_linear_7712_5377" x1="0.00820538" y1="24.035" x2="162.728" y2="24.035" gradientUnits="userSpaceOnUse">
<stop stop-color="#DFAA23"/>
<stop offset="0.52" stop-color="#FBF08D"/>
<stop offset="1" stop-color="#DFAA23"/>
</linearGradient>
<linearGradient id="paint1_linear_7712_5377" x1="0.00881685" y1="24.035" x2="162.729" y2="24.035" gradientUnits="userSpaceOnUse">
<stop stop-color="#DFAA23"/>
<stop offset="0.52" stop-color="#FBF08D"/>
<stop offset="1" stop-color="#DFAA23"/>
</linearGradient>
<linearGradient id="paint2_linear_7712_5377" x1="0.00950799" y1="24.0348" x2="162.73" y2="24.0348" gradientUnits="userSpaceOnUse">
<stop stop-color="#DFAA23"/>
<stop offset="0.52" stop-color="#FBF08D"/>
<stop offset="1" stop-color="#DFAA23"/>
</linearGradient>
<linearGradient id="paint3_linear_7712_5377" x1="0.00950799" y1="24.0343" x2="162.73" y2="24.0343" gradientUnits="userSpaceOnUse">
<stop stop-color="#DFAA23"/>
<stop offset="0.52" stop-color="#FBF08D"/>
<stop offset="1" stop-color="#DFAA23"/>
</linearGradient>
<linearGradient id="paint4_linear_7712_5377" x1="0.00950799" y1="24.0337" x2="162.73" y2="24.0337" gradientUnits="userSpaceOnUse">
<stop stop-color="#DFAA23"/>
<stop offset="0.52" stop-color="#FBF08D"/>
<stop offset="1" stop-color="#DFAA23"/>
</linearGradient>
<linearGradient id="paint5_linear_7712_5377" x1="0.00950799" y1="24.0333" x2="162.73" y2="24.0333" gradientUnits="userSpaceOnUse">
<stop stop-color="#DFAA23"/>
<stop offset="0.52" stop-color="#FBF08D"/>
<stop offset="1" stop-color="#DFAA23"/>
</linearGradient>
<linearGradient id="paint6_linear_7712_5377" x1="0.00828843" y1="24.0328" x2="162.728" y2="24.0328" gradientUnits="userSpaceOnUse">
<stop stop-color="#DFAA23"/>
<stop offset="0.52" stop-color="#FBF08D"/>
<stop offset="1" stop-color="#DFAA23"/>
</linearGradient>
<linearGradient id="paint7_linear_7712_5377" x1="0.00958463" y1="24.035" x2="162.73" y2="24.035" gradientUnits="userSpaceOnUse">
<stop stop-color="#DFAA23"/>
<stop offset="0.52" stop-color="#FBF08D"/>
<stop offset="1" stop-color="#DFAA23"/>
</linearGradient>
<linearGradient id="paint8_linear_7712_5377" x1="0.00954281" y1="24.035" x2="162.73" y2="24.035" gradientUnits="userSpaceOnUse">
<stop stop-color="#DFAA23"/>
<stop offset="0.52" stop-color="#FBF08D"/>
<stop offset="1" stop-color="#DFAA23"/>
</linearGradient>
<linearGradient id="paint9_linear_7712_5377" x1="0.00881899" y1="24.035" x2="162.729" y2="24.035" gradientUnits="userSpaceOnUse">
<stop stop-color="#DFAA23"/>
<stop offset="0.52" stop-color="#FBF08D"/>
<stop offset="1" stop-color="#DFAA23"/>
</linearGradient>
<linearGradient id="paint10_linear_7712_5377" x1="0.00858806" y1="24.035" x2="162.729" y2="24.035" gradientUnits="userSpaceOnUse">
<stop stop-color="#DFAA23"/>
<stop offset="0.52" stop-color="#FBF08D"/>
<stop offset="1" stop-color="#DFAA23"/>
</linearGradient>
<linearGradient id="paint11_linear_7712_5377" x1="0.0090679" y1="24.0352" x2="162.729" y2="24.0352" gradientUnits="userSpaceOnUse">
<stop stop-color="#DFAA23"/>
<stop offset="0.52" stop-color="#FBF08D"/>
<stop offset="1" stop-color="#DFAA23"/>
</linearGradient>
<linearGradient id="paint12_linear_7712_5377" x1="0.0085628" y1="24.0352" x2="162.729" y2="24.0352" gradientUnits="userSpaceOnUse">
<stop stop-color="#DFAA23"/>
<stop offset="0.52" stop-color="#FBF08D"/>
<stop offset="1" stop-color="#DFAA23"/>
</linearGradient>
<linearGradient id="paint13_linear_7712_5377" x1="0.00985131" y1="24.0352" x2="162.73" y2="24.0352" gradientUnits="userSpaceOnUse">
<stop stop-color="#DFAA23"/>
<stop offset="0.52" stop-color="#FBF08D"/>
<stop offset="1" stop-color="#DFAA23"/>
</linearGradient>
<linearGradient id="paint14_linear_7712_5377" x1="0.00847725" y1="24.0352" x2="162.729" y2="24.0352" gradientUnits="userSpaceOnUse">
<stop stop-color="#DFAA23"/>
<stop offset="0.52" stop-color="#FBF08D"/>
<stop offset="1" stop-color="#DFAA23"/>
</linearGradient>
<linearGradient id="paint15_linear_7712_5377" x1="0.00825794" y1="24.0352" x2="162.728" y2="24.0352" gradientUnits="userSpaceOnUse">
<stop stop-color="#DFAA23"/>
<stop offset="0.52" stop-color="#FBF08D"/>
<stop offset="1" stop-color="#DFAA23"/>
</linearGradient>
<linearGradient id="paint16_linear_7712_5377" x1="0.00882101" y1="24.0349" x2="162.729" y2="24.0349" gradientUnits="userSpaceOnUse">
<stop stop-color="#DFAA23"/>
<stop offset="0.52" stop-color="#FBF08D"/>
<stop offset="1" stop-color="#DFAA23"/>
</linearGradient>
<linearGradient id="paint17_linear_7712_5377" x1="0.0092957" y1="24.0352" x2="162.729" y2="24.0352" gradientUnits="userSpaceOnUse">
<stop stop-color="#DFAA23"/>
<stop offset="0.52" stop-color="#FBF08D"/>
<stop offset="1" stop-color="#DFAA23"/>
</linearGradient>
<linearGradient id="paint18_linear_7712_5377" x1="0.00985615" y1="24.0352" x2="162.73" y2="24.0352" gradientUnits="userSpaceOnUse">
<stop stop-color="#DFAA23"/>
<stop offset="0.52" stop-color="#FBF08D"/>
<stop offset="1" stop-color="#DFAA23"/>
</linearGradient>
<linearGradient id="paint19_linear_7712_5377" x1="0.009313" y1="24.0352" x2="162.729" y2="24.0352" gradientUnits="userSpaceOnUse">
<stop stop-color="#DFAA23"/>
<stop offset="0.52" stop-color="#FBF08D"/>
<stop offset="1" stop-color="#DFAA23"/>
</linearGradient>
<linearGradient id="paint20_linear_7712_5377" x1="0.00869888" y1="24.0352" x2="162.729" y2="24.0352" gradientUnits="userSpaceOnUse">
<stop stop-color="#DFAA23"/>
<stop offset="0.52" stop-color="#FBF08D"/>
<stop offset="1" stop-color="#DFAA23"/>
</linearGradient>
<linearGradient id="paint21_linear_7712_5377" x1="0.00869391" y1="24.0352" x2="162.729" y2="24.0352" gradientUnits="userSpaceOnUse">
<stop stop-color="#DFAA23"/>
<stop offset="0.52" stop-color="#FBF08D"/>
<stop offset="1" stop-color="#DFAA23"/>
</linearGradient>
<linearGradient id="paint22_linear_7712_5377" x1="0.00909297" y1="24.0352" x2="162.729" y2="24.0352" gradientUnits="userSpaceOnUse">
<stop stop-color="#DFAA23"/>
<stop offset="0.52" stop-color="#FBF08D"/>
<stop offset="1" stop-color="#DFAA23"/>
</linearGradient>
<linearGradient id="paint23_linear_7712_5377" x1="0.0089164" y1="24.0352" x2="162.729" y2="24.0352" gradientUnits="userSpaceOnUse">
<stop stop-color="#DFAA23"/>
<stop offset="0.52" stop-color="#FBF08D"/>
<stop offset="1" stop-color="#DFAA23"/>
</linearGradient>
<linearGradient id="paint24_linear_7712_5377" x1="0.0084244" y1="24.0352" x2="162.729" y2="24.0352" gradientUnits="userSpaceOnUse">
<stop stop-color="#DFAA23"/>
<stop offset="0.52" stop-color="#FBF08D"/>
<stop offset="1" stop-color="#DFAA23"/>
</linearGradient>
<linearGradient id="paint25_linear_7712_5377" x1="0.00951558" y1="24.035" x2="162.73" y2="24.035" gradientUnits="userSpaceOnUse">
<stop stop-color="#DFAA23"/>
<stop offset="0.52" stop-color="#FBF08D"/>
<stop offset="1" stop-color="#DFAA23"/>
</linearGradient>
<linearGradient id="paint26_linear_7712_5377" x1="0.00953701" y1="24.0336" x2="162.73" y2="24.0336" gradientUnits="userSpaceOnUse">
<stop stop-color="#DFAA23"/>
<stop offset="0.52" stop-color="#FBF08D"/>
<stop offset="1" stop-color="#DFAA23"/>
</linearGradient>
<linearGradient id="paint27_linear_7712_5377" x1="0.0103391" y1="24.035" x2="162.73" y2="24.035" gradientUnits="userSpaceOnUse">
<stop stop-color="#DFAA23"/>
<stop offset="0.52" stop-color="#FBF08D"/>
<stop offset="1" stop-color="#DFAA23"/>
</linearGradient>
<linearGradient id="paint28_linear_7712_5377" x1="0.00924897" y1="24.035" x2="162.729" y2="24.035" gradientUnits="userSpaceOnUse">
<stop stop-color="#DFAA23"/>
<stop offset="0.52" stop-color="#FBF08D"/>
<stop offset="1" stop-color="#DFAA23"/>
</linearGradient>
<linearGradient id="paint29_linear_7712_5377" x1="0.00866067" y1="24.035" x2="162.729" y2="24.035" gradientUnits="userSpaceOnUse">
<stop stop-color="#DFAA23"/>
<stop offset="0.52" stop-color="#FBF08D"/>
<stop offset="1" stop-color="#DFAA23"/>
</linearGradient>
<linearGradient id="paint30_linear_7712_5377" x1="0.00986346" y1="24.035" x2="162.73" y2="24.035" gradientUnits="userSpaceOnUse">
<stop stop-color="#DFAA23"/>
<stop offset="0.52" stop-color="#FBF08D"/>
<stop offset="1" stop-color="#DFAA23"/>
</linearGradient>
</defs>
</svg>
