<svg width="44" height="49" viewBox="0 0 44 49" fill="none" xmlns="http://www.w3.org/2000/svg">
<path d="M11.2927 9.31169C11.2927 9.31169 10.0752 10.2152 8.83679 9.31169C8.83679 9.31169 8.30805 8.88213 8.24544 8.72661C8.24544 8.72661 8.00194 8.4748 7.89062 8.78586C7.89062 8.78586 7.97411 9.29688 8.72548 10.0449C8.72548 10.0449 10.0752 11.7483 12.3501 10.2967C12.3641 10.2967 12.371 10.2819 12.3849 10.2745L15.7661 8.14153C15.7661 8.14153 18.9455 6.19372 20.5456 9.67459C20.5456 9.67459 21.7492 12.0371 20.5456 14.7996C20.5456 14.7996 19.6273 16.7178 17.9298 18.2805L16.6079 19.584C16.6079 19.584 15.9539 20.0802 16.6566 20.0654C16.6566 20.0654 18.0132 19.147 18.6115 18.6138C18.6115 18.6138 21.1022 16.2586 21.7353 14.4219C21.7353 14.4219 22.918 11.5557 21.944 9.07469C21.944 9.07469 20.81 5.43089 16.9558 6.33443C16.9558 6.33443 14.6599 7.36388 13.832 7.84528L11.2927 9.31169Z" fill="url(#paint0_linear_7712_5378)"/>
<path d="M10.5697 6.89723C10.5697 6.89723 9.8601 6.91205 9.59573 6.63061C9.59573 6.63061 7.98168 5.86038 7.39728 5.82335C7.39728 5.82335 4.9762 5.20864 2.72905 6.51212C2.72905 6.51212 -0.74951 7.86743 0.147959 13.1332C0.147959 13.1332 0.168831 15.9697 3.96742 19.258C3.96742 19.258 6.18674 20.9244 7.32771 21.7317C7.32771 21.7317 11.4672 24.4275 14.6675 28.6193C14.6675 28.6193 17.7356 32.4409 17.2764 35.8773C17.2764 35.8773 16.6363 41.9281 8.88611 43.8167L8.22518 43.8685C8.22518 43.8685 8.06517 43.8907 8.05125 44.0759C8.05125 44.0759 8.03038 44.3203 8.38519 44.2536C8.38519 44.2536 10.9593 44.0907 11.7107 43.75C11.7107 43.75 13.7352 43.1279 14.8136 42.1429C14.8136 42.1429 18.0904 39.5952 18.2921 35.07C18.2921 35.07 18.48 30.582 15.391 27.4047C15.391 27.4047 11.5298 22.9907 7.72427 20.3986C7.72427 20.3986 3.26475 17.2213 2.09595 13.9997C2.09595 13.9997 0.210575 8.50436 4.19005 7.40085C4.19005 7.40085 5.35884 6.94167 6.4372 7.01573C6.4372 7.01573 7.94689 7.2157 8.56608 7.49713C8.56608 7.49713 10.9872 7.8304 11.8777 7.4601C11.8777 7.4601 13.29 7.24532 13.0673 6.75652C13.0673 6.75652 12.9978 6.59358 12.7473 6.72689C12.7473 6.72689 11.0706 7.06757 10.5489 6.90464L10.5697 6.89723Z" fill="url(#paint1_linear_7712_5378)"/>
<path d="M8.35806 25.8051C8.35806 25.8051 7.98237 27.1162 11.1548 26.9977C11.1548 26.9977 14.1046 26.7532 12.1775 27.2717C12.1775 27.2717 8.71983 28.1754 7.39797 26.7088C7.39797 26.7088 6.85532 26.0347 7.69017 25.3385C7.69017 25.3385 8.74765 24.4496 8.35806 25.7977V25.8051Z" fill="url(#paint2_linear_7712_5378)"/>
<path d="M8.35806 29.2786C8.35806 29.2786 7.98237 30.5896 11.1548 30.4711C11.1548 30.4711 14.1046 30.2193 12.1775 30.7452C12.1775 30.7452 8.71983 31.6489 7.39797 30.1822C7.39797 30.1822 6.85532 29.5082 7.69017 28.8119C7.69017 28.8119 8.74765 27.923 8.35806 29.2712V29.2786Z" fill="url(#paint3_linear_7712_5378)"/>
<path d="M8.35806 32.8779C8.35806 32.8779 7.98237 34.189 11.1548 34.0705C11.1548 34.0705 14.1046 33.8261 12.1775 34.3446C12.1775 34.3446 8.71983 35.2482 7.39797 33.7816C7.39797 33.7816 6.85532 33.1076 7.69017 32.4113C7.69017 32.4113 8.74765 31.5224 8.35806 32.8705V32.8779Z" fill="url(#paint4_linear_7712_5378)"/>
<path d="M8.35806 36.2255C8.35806 36.2255 7.98237 37.5366 11.1548 37.4181C11.1548 37.4181 14.1046 37.1736 12.1775 37.6922C12.1775 37.6922 8.71983 38.5958 7.39797 37.1292C7.39797 37.1292 6.85532 36.4551 7.69017 35.7589C7.69017 35.7589 8.74765 34.87 8.35806 36.2181V36.2255Z" fill="url(#paint5_linear_7712_5378)"/>
<path d="M8.21769 39.8027C8.21769 39.8027 7.8281 41.1582 11.0979 41.0323C11.0979 41.0323 14.1382 40.773 12.1485 41.3138C12.1485 41.3138 8.58642 42.2397 7.22283 40.736C7.22283 40.736 6.66626 40.0471 7.52198 39.3212C7.52198 39.3212 8.61425 38.4101 8.21074 39.7953L8.21769 39.8027Z" fill="url(#paint6_linear_7712_5378)"/>
<path d="M9.1582 3.09051C9.1582 3.09051 13.7777 -0.671794 23.2325 0.105847C23.2325 0.105847 32.4437 0.453935 39.1017 9.83006C39.1017 9.83006 42.5941 14.3626 43.4012 20.0653C43.4012 20.0653 45.7944 31.0189 39.1017 39.2027C39.1017 39.2027 44.0134 30.9967 41.9402 22.0057C41.9402 22.0057 40.4374 10.0819 30.0922 3.86074C30.0922 3.86074 21.5419 -2.83438 9.1582 3.0831V3.09051Z" fill="url(#paint7_linear_7712_5378)"/>
<path d="M23.2324 5.60119C23.2324 5.60119 28.3111 5.39382 34.7047 11.0299C34.7047 11.0299 41.1261 16.2215 41.4392 26.5012C41.4392 26.5012 41.7871 31.6188 39.6651 36.1291C39.6651 36.1291 36.1866 45.2461 27.518 47.4975C27.518 47.4975 34.9204 44.2685 37.6963 36.7365C37.6963 36.7365 42.2741 27.4048 37.8285 17.4065C37.8285 17.4065 34.8926 8.03039 23.2394 5.6086L23.2324 5.60119Z" fill="url(#paint8_linear_7712_5378)"/>
<path d="M25.1797 47.4901C33.5213 42.728 35.9076 35.4478 36.5059 30.2191C38.0295 16.8658 28.9574 12.0741 28.9574 12.0741C28.9574 12.0741 39.6088 16.9992 37.7234 32.1298C37.7234 32.1298 36.2624 43.5649 25.1797 47.4901Z" fill="url(#paint9_linear_7712_5378)"/>
<path d="M33.0967 21.665C33.0967 21.665 37.4797 34.5591 28.4702 42.5354C28.4702 42.5354 20.5182 50.2452 9.94336 45.8386C9.94336 45.8386 18.6328 51.7857 28.1641 44.2537C28.1641 44.2537 39.1076 36.9586 33.0967 21.665Z" fill="url(#paint10_linear_7712_5378)"/>
<defs>
<linearGradient id="paint0_linear_7712_5378" x1="0.00820538" y1="24.035" x2="162.728" y2="24.035" gradientUnits="userSpaceOnUse">
<stop stop-color="#DFAA23"/>
<stop offset="0.52" stop-color="#FBF08D"/>
<stop offset="1" stop-color="#DFAA23"/>
</linearGradient>
<linearGradient id="paint1_linear_7712_5378" x1="0.00881685" y1="24.035" x2="162.729" y2="24.035" gradientUnits="userSpaceOnUse">
<stop stop-color="#DFAA23"/>
<stop offset="0.52" stop-color="#FBF08D"/>
<stop offset="1" stop-color="#DFAA23"/>
</linearGradient>
<linearGradient id="paint2_linear_7712_5378" x1="0.00950799" y1="24.0348" x2="162.73" y2="24.0348" gradientUnits="userSpaceOnUse">
<stop stop-color="#DFAA23"/>
<stop offset="0.52" stop-color="#FBF08D"/>
<stop offset="1" stop-color="#DFAA23"/>
</linearGradient>
<linearGradient id="paint3_linear_7712_5378" x1="0.00950799" y1="24.0343" x2="162.73" y2="24.0343" gradientUnits="userSpaceOnUse">
<stop stop-color="#DFAA23"/>
<stop offset="0.52" stop-color="#FBF08D"/>
<stop offset="1" stop-color="#DFAA23"/>
</linearGradient>
<linearGradient id="paint4_linear_7712_5378" x1="0.00950799" y1="24.0337" x2="162.73" y2="24.0337" gradientUnits="userSpaceOnUse">
<stop stop-color="#DFAA23"/>
<stop offset="0.52" stop-color="#FBF08D"/>
<stop offset="1" stop-color="#DFAA23"/>
</linearGradient>
<linearGradient id="paint5_linear_7712_5378" x1="0.00950799" y1="24.0333" x2="162.73" y2="24.0333" gradientUnits="userSpaceOnUse">
<stop stop-color="#DFAA23"/>
<stop offset="0.52" stop-color="#FBF08D"/>
<stop offset="1" stop-color="#DFAA23"/>
</linearGradient>
<linearGradient id="paint6_linear_7712_5378" x1="0.00828843" y1="24.0328" x2="162.728" y2="24.0328" gradientUnits="userSpaceOnUse">
<stop stop-color="#DFAA23"/>
<stop offset="0.52" stop-color="#FBF08D"/>
<stop offset="1" stop-color="#DFAA23"/>
</linearGradient>
<linearGradient id="paint7_linear_7712_5378" x1="0.00958463" y1="24.035" x2="162.73" y2="24.035" gradientUnits="userSpaceOnUse">
<stop stop-color="#DFAA23"/>
<stop offset="0.52" stop-color="#FBF08D"/>
<stop offset="1" stop-color="#DFAA23"/>
</linearGradient>
<linearGradient id="paint8_linear_7712_5378" x1="0.00954281" y1="24.035" x2="162.73" y2="24.035" gradientUnits="userSpaceOnUse">
<stop stop-color="#DFAA23"/>
<stop offset="0.52" stop-color="#FBF08D"/>
<stop offset="1" stop-color="#DFAA23"/>
</linearGradient>
<linearGradient id="paint9_linear_7712_5378" x1="0.00881899" y1="24.035" x2="162.729" y2="24.035" gradientUnits="userSpaceOnUse">
<stop stop-color="#DFAA23"/>
<stop offset="0.52" stop-color="#FBF08D"/>
<stop offset="1" stop-color="#DFAA23"/>
</linearGradient>
<linearGradient id="paint10_linear_7712_5378" x1="0.00858806" y1="24.035" x2="162.729" y2="24.035" gradientUnits="userSpaceOnUse">
<stop stop-color="#DFAA23"/>
<stop offset="0.52" stop-color="#FBF08D"/>
<stop offset="1" stop-color="#DFAA23"/>
</linearGradient>
</defs>
</svg>
